<?xml version="1.0" encoding="UTF-8" standalone="no"?><svg xmlns="http://www.w3.org/2000/svg" xmlns:xlink="http://www.w3.org/1999/xlink" contentScriptType="application/ecmascript" contentStyleType="text/css" height="630px" preserveAspectRatio="none" style="width:586px;height:629px;" version="1.1" viewBox="0 0 586 629" width="586.8px" zoomAndPan="magnify"><defs><filter height="300%" id="fk4g1cc" width="300%" x="-1" y="-1"><feGaussianBlur result="blurOut" stdDeviation="7.199999809265137"/><feColorMatrix in="blurOut" result="blurOut2" type="matrix" values="0 0 0 0 0 0 0 0 0 0 0 0 0 0 0 0 0 0 .4 0"/><feOffset dx="14.399999618530273" dy="14.399999618530273" in="blurOut2" result="blurOut3"/><feBlend in="SourceGraphic" in2="blurOut3" mode="normal"/></filter></defs><g><!--class Car--><rect fill="#F8F8F8" filter="url(#fk4g1cc)" height="571.275" style="stroke: #383838; stroke-width: 5.3999998569488525;" width="532.8" x="21.6" y="28.8"/><ellipse cx="236.7" cy="86.4" fill="#C2C2C2" rx="39.6" ry="39.6" style="stroke: #383838; stroke-width: 3.5999999046325684;"/><path d="M243.9,73.8 Q244.6312,72 245.475,71.1 Q246.3187,70.2 247.275,70.2 Q248.9625,70.2 250.0312,71.2125 Q251.1,72.225 251.1,74.5875 L251.1,80.2125 Q251.1,82.575 250.0875,83.5875 Q249.075,84.6 247.5,84.6 Q246.0937,84.6 245.1937,83.9812 Q244.2937,83.3625 243.9,81.7312 Q243.7312,80.6062 243.1125,79.9875 Q241.9875,78.8062 239.9625,78.1031 Q237.9375,77.4 235.9125,77.4 Q233.3812,77.4 231.2719,78.4125 Q229.1625,79.425 227.5312,81.675 Q225.9,83.925 225.9,87.0187 L225.9,90.3375 Q225.9,94.05 228.9375,96.525 Q231.975,99 237.375,99 Q240.5812,99 242.8312,98.2687 Q244.125,97.875 245.5875,96.5812 Q246.5437,95.85 247.05,95.625 Q247.5562,95.4 248.175,95.4 Q249.3562,95.4 250.2281,96.3281 Q251.1,97.2562 251.1,98.55 Q251.1,99.7875 249.8625,101.25 Q248.0625,103.3875 245.1937,104.5687 Q241.425,106.2 236.8125,106.2 Q231.4125,106.2 227.0812,104.0625 Q223.5937,102.375 221.1469,98.7187 Q218.7,95.0625 218.7,90.7312 L218.7,86.7937 Q218.7,82.2937 220.8656,78.3562 Q223.0312,74.4187 226.8281,72.3094 Q230.625,70.2 234.9,70.2 Q237.4875,70.2 239.7375,71.1 Q241.9875,72 243.9,73.8 Z "/><text fill="#000000" font-family="sans-serif" font-size="43.2" lengthAdjust="spacingAndGlyphs" textLength="72" x="310.5" y="104.0766">Car</text><line style="stroke: #383838; stroke-width: 5.3999998569488525;" x1="25.2" x2="550.8" y1="144" y2="144"/><text fill="#000000" font-family="sans-serif" font-size="39.6" lengthAdjust="spacingAndGlyphs" textLength="259.2" x="43.2" y="199.5082">-__year_model</text><text fill="#000000" font-family="sans-serif" font-size="39.6" lengthAdjust="spacingAndGlyphs" textLength="147.6" x="43.2" y="249.3176">-__make</text><text fill="#000000" font-family="sans-serif" font-size="39.6" lengthAdjust="spacingAndGlyphs" textLength="165.6" x="43.2" y="299.1269">-__speed</text><line style="stroke: #383838; stroke-width: 5.3999998569488525;" x1="25.2" x2="550.8" y1="322.2281" y2="322.2281"/><text fill="#000000" font-family="sans-serif" font-size="39.6" lengthAdjust="spacingAndGlyphs" textLength="489.6" x="43.2" y="377.7363">-__init__(year_model, make)</text><text fill="#000000" font-family="sans-serif" font-size="39.6" lengthAdjust="spacingAndGlyphs" textLength="234" x="43.2" y="427.5457">+accelerate()</text><text fill="#000000" font-family="sans-serif" font-size="39.6" lengthAdjust="spacingAndGlyphs" textLength="212.4" x="43.2" y="477.3551">+brake(age)</text><text fill="#000000" font-family="sans-serif" font-size="39.6" lengthAdjust="spacingAndGlyphs" textLength="234" x="43.2" y="527.1644">+get_speed()</text><text fill="#000000" font-family="sans-serif" font-size="39.6" lengthAdjust="spacingAndGlyphs" textLength="176.4" x="43.2" y="576.9738">-__str__()</text></g></svg>