<?xml version="1.0" encoding="UTF-8" standalone="no"?><svg xmlns="http://www.w3.org/2000/svg" xmlns:xlink="http://www.w3.org/1999/xlink" contentScriptType="application/ecmascript" contentStyleType="text/css" height="781.2px" preserveAspectRatio="none" style="width:680px;height:781px;" version="1.1" viewBox="0 0 680 781" width="680.4px" zoomAndPan="magnify"><defs><filter height="300%" id="f0d0tdv" width="300%" x="-1" y="-1"><feGaussianBlur result="blurOut" stdDeviation="7.199999809265137"/><feColorMatrix in="blurOut" result="blurOut2" type="matrix" values="0 0 0 0 0 0 0 0 0 0 0 0 0 0 0 0 0 0 .4 0"/><feOffset dx="14.399999618530273" dy="14.399999618530273" in="blurOut2" result="blurOut3"/><feBlend in="SourceGraphic" in2="blurOut3" mode="normal"/></filter></defs><g><!--class Pet--><rect fill="#F8F8F8" filter="url(#f0d0tdv)" height="720.7031" style="stroke: #383838; stroke-width: 5.3999998569488525;" width="626.4" x="21.6" y="28.8"/><ellipse cx="287.1" cy="86.4" fill="#C2C2C2" rx="39.6" ry="39.6" style="stroke: #383838; stroke-width: 3.5999999046325684;"/><path d="M294.3,73.8 Q295.0312,72 295.875,71.1 Q296.7187,70.2 297.675,70.2 Q299.3625,70.2 300.4312,71.2125 Q301.5,72.225 301.5,74.5875 L301.5,80.2125 Q301.5,82.575 300.4875,83.5875 Q299.475,84.6 297.9,84.6 Q296.4937,84.6 295.5937,83.9812 Q294.6937,83.3625 294.3,81.7312 Q294.1312,80.6062 293.5125,79.9875 Q292.3875,78.8062 290.3625,78.1031 Q288.3375,77.4 286.3125,77.4 Q283.7812,77.4 281.6719,78.4125 Q279.5625,79.425 277.9312,81.675 Q276.3,83.925 276.3,87.0187 L276.3,90.3375 Q276.3,94.05 279.3375,96.525 Q282.375,99 287.775,99 Q290.9812,99 293.2312,98.2687 Q294.525,97.875 295.9875,96.5812 Q296.9437,95.85 297.45,95.625 Q297.9562,95.4 298.575,95.4 Q299.7562,95.4 300.6281,96.3281 Q301.5,97.2562 301.5,98.55 Q301.5,99.7875 300.2625,101.25 Q298.4625,103.3875 295.5937,104.5687 Q291.825,106.2 287.2125,106.2 Q281.8125,106.2 277.4812,104.0625 Q273.9937,102.375 271.5469,98.7187 Q269.1,95.0625 269.1,90.7312 L269.1,86.7937 Q269.1,82.2937 271.2656,78.3562 Q273.4312,74.4187 277.2281,72.3094 Q281.025,70.2 285.3,70.2 Q287.8875,70.2 290.1375,71.1 Q292.3875,72 294.3,73.8 Z "/><text fill="#000000" font-family="sans-serif" font-size="43.2" lengthAdjust="spacingAndGlyphs" textLength="64.8" x="360.9" y="104.0766">Pet</text><line style="stroke: #383838; stroke-width: 5.3999998569488525;" x1="25.2" x2="644.4" y1="144" y2="144"/><text fill="#000000" font-family="sans-serif" font-size="39.6" lengthAdjust="spacingAndGlyphs" textLength="151.2" x="43.2" y="199.5082">-__name</text><text fill="#000000" font-family="sans-serif" font-size="39.6" lengthAdjust="spacingAndGlyphs" textLength="262.8" x="43.2" y="249.3176">-__animal_type</text><text fill="#000000" font-family="sans-serif" font-size="39.6" lengthAdjust="spacingAndGlyphs" textLength="122.4" x="43.2" y="299.1269">-__age</text><line style="stroke: #383838; stroke-width: 5.3999998569488525;" x1="25.2" x2="644.4" y1="322.2281" y2="322.2281"/><text fill="#000000" font-family="sans-serif" font-size="39.6" lengthAdjust="spacingAndGlyphs" textLength="583.2" x="43.2" y="377.7363">-__init__(name, animal_type, age)</text><text fill="#000000" font-family="sans-serif" font-size="39.6" lengthAdjust="spacingAndGlyphs" textLength="313.2" x="43.2" y="427.5457">+set_name(name)</text><text fill="#000000" font-family="sans-serif" font-size="39.6" lengthAdjust="spacingAndGlyphs" textLength="406.8" x="43.2" y="477.3551">+set_animal_type(type)</text><text fill="#000000" font-family="sans-serif" font-size="39.6" lengthAdjust="spacingAndGlyphs" textLength="255.6" x="43.2" y="527.1644">+set_age(age)</text><text fill="#000000" font-family="sans-serif" font-size="39.6" lengthAdjust="spacingAndGlyphs" textLength="219.6" x="43.2" y="576.9738">+get_name()</text><text fill="#000000" font-family="sans-serif" font-size="39.6" lengthAdjust="spacingAndGlyphs" textLength="280.8" x="43.2" y="626.7832">+def get_type():</text><text fill="#000000" font-family="sans-serif" font-size="39.6" lengthAdjust="spacingAndGlyphs" textLength="190.8" x="43.2" y="676.5926">+get_age()</text><text fill="#000000" font-family="sans-serif" font-size="39.6" lengthAdjust="spacingAndGlyphs" textLength="176.4" x="43.2" y="726.4019">-__str__()</text></g></svg>